<mxfile host="app.diagrams.net" modified="2024-04-07T09:46:13.001Z" agent="Mozilla/5.0 (Windows NT 10.0; Win64; x64) AppleWebKit/537.36 (KHTML, like Gecko) Chrome/122.0.0.0 Safari/537.36 OPR/108.0.0.0" version="24.2.2" etag="3IYqKMGrfW0hu7X-JY3Y" type="github">
  <diagram name="Page-1" id="y7QavkMMrFh_6tTms8Qj">
    <mxGraphModel>
      <root>
        <mxCell id="0" />
        <mxCell id="1" parent="0" />
      </root>
    </mxGraphModel>
  </diagram>
</mxfile>
